<svg width="28" height="28" viewBox="0 0 28 28" fill="none" xmlns="http://www.w3.org/2000/svg">
<g clip-path="url(#clip0_2938_8290)">
<path d="M18.614 8.97622C23.7266 8.89812 27.8995 12.9221 27.9985 18.0343C28.013 18.7849 27.938 19.5155 27.7834 20.2162C27.5217 21.4028 27.3661 22.6102 27.3661 23.8253V26.174C27.3661 26.5339 27.0744 26.8256 26.7146 26.8256H24.3658C23.1507 26.8256 21.9433 26.9812 20.7567 27.2429C20.056 27.3974 19.3255 27.4725 18.5749 27.4579C13.4627 27.359 9.43876 23.1862 9.51674 18.0737C9.59281 13.0835 13.6238 9.05245 18.614 8.97622Z" fill="url(#paint0_linear_2938_8290)"/>
<path d="M18.614 8.97622C23.7266 8.89812 27.8995 12.9221 27.9985 18.0343C28.013 18.7849 27.938 19.5155 27.7834 20.2162C27.5217 21.4028 27.3661 22.6102 27.3661 23.8253V26.174C27.3661 26.5339 27.0744 26.8256 26.7146 26.8256H24.3658C23.1507 26.8256 21.9433 26.9812 20.7567 27.2429C20.056 27.3974 19.3255 27.4725 18.5749 27.4579C13.4627 27.359 9.43876 23.1862 9.51674 18.0737C9.59281 13.0835 13.6238 9.05245 18.614 8.97622Z" fill="url(#paint1_linear_2938_8290)"/>
<path d="M11.435 0.541889C5.20648 0.446733 0.122793 5.34897 0.00215246 11.5771C-0.0155116 12.4914 0.0758711 13.3816 0.264214 14.2352C0.583042 15.6807 0.772588 17.1518 0.772588 18.6321V21.4934C0.772588 21.9318 1.12795 22.2872 1.56638 22.2872H4.42773C5.90801 22.2872 7.37905 22.4768 8.8246 22.7956C9.67827 22.9839 10.5684 23.0753 11.4827 23.0576C17.7107 22.937 22.6129 17.8535 22.518 11.6251C22.4252 5.54562 17.5144 0.634694 11.435 0.541889Z" fill="url(#paint2_linear_2938_8290)"/>
<path d="M7.22991 11.1967C6.91185 10.8587 6.46166 10.6465 5.96083 10.6465C4.99762 10.6465 4.2168 11.4273 4.2168 12.3905C4.2168 12.8913 4.42898 13.3415 4.76701 13.6596L8.52917 17.4218C8.84729 17.7597 9.29747 17.972 9.79825 17.972C10.7615 17.972 11.5423 17.1911 11.5423 16.2279C11.5423 15.7272 11.33 15.277 10.9921 14.9589L7.22991 11.1967Z" fill="url(#paint3_linear_2938_8290)"/>
<path d="M5.96083 14.1346C6.92404 14.1346 7.70487 13.3537 7.70487 12.3905C7.70487 11.4273 6.92404 10.6465 5.96083 10.6465C4.99763 10.6465 4.2168 11.4273 4.2168 12.3905C4.2168 13.3537 4.99763 14.1346 5.96083 14.1346Z" fill="white"/>
<path d="M12.1615 11.1967C11.8435 10.8587 11.3933 10.6465 10.8925 10.6465C9.92926 10.6465 9.14844 11.4273 9.14844 12.3905C9.14844 12.8913 9.36062 13.3415 9.69865 13.6596L13.4608 17.4218C13.7789 17.7597 14.2291 17.972 14.7299 17.972C15.6931 17.972 16.4739 17.1911 16.4739 16.2279C16.4739 15.7272 16.2617 15.277 15.9237 14.9589L12.1615 11.1967Z" fill="url(#paint4_linear_2938_8290)"/>
<path d="M10.8925 14.1346C11.8557 14.1346 12.6365 13.3537 12.6365 12.3905C12.6365 11.4273 11.8557 10.6465 10.8925 10.6465C9.92927 10.6465 9.14844 11.4273 9.14844 12.3905C9.14844 13.3537 9.92927 14.1346 10.8925 14.1346Z" fill="white"/>
<path d="M17.0951 11.1967C16.7771 10.8587 16.3269 10.6465 15.8261 10.6465C14.8629 10.6465 14.082 11.4273 14.082 12.3905C14.082 12.8913 14.2943 13.3415 14.6322 13.6596L18.3944 17.4218C18.7125 17.7597 19.1627 17.972 19.6635 17.972C20.6267 17.972 21.4075 17.1911 21.4075 16.2279C21.4075 15.7272 21.1953 15.277 20.8573 14.9589L17.0951 11.1967Z" fill="url(#paint5_linear_2938_8290)"/>
<path d="M15.8261 14.1346C16.7893 14.1346 17.5701 13.3537 17.5701 12.3905C17.5701 11.4273 16.7893 10.6465 15.8261 10.6465C14.8629 10.6465 14.082 11.4273 14.082 12.3905C14.082 13.3537 14.8629 14.1346 15.8261 14.1346Z" fill="white"/>
</g>
<defs>
<linearGradient id="paint0_linear_2938_8290" x1="16.8922" y1="16.3523" x2="30.4615" y2="29.9216" gradientUnits="userSpaceOnUse">
<stop stop-color="#A7F3CE"/>
<stop offset="1" stop-color="#61DB99"/>
</linearGradient>
<linearGradient id="paint1_linear_2938_8290" x1="21.3341" y1="20.7939" x2="15.5706" y2="15.031" gradientUnits="userSpaceOnUse">
<stop stop-color="#61DB99" stop-opacity="0"/>
<stop offset="1" stop-color="#009E74"/>
</linearGradient>
<linearGradient id="paint2_linear_2938_8290" x1="7.14597" y1="9.97983" x2="21.4723" y2="24.3062" gradientUnits="userSpaceOnUse">
<stop stop-color="#62E1FB"/>
<stop offset="1" stop-color="#00A2F3"/>
</linearGradient>
<linearGradient id="paint3_linear_2938_8290" x1="9.84046" y1="16.2705" x2="2.29743" y2="8.7277" gradientUnits="userSpaceOnUse">
<stop stop-color="#00A2F3" stop-opacity="0"/>
<stop offset="1" stop-color="#0075CD"/>
</linearGradient>
<linearGradient id="paint4_linear_2938_8290" x1="14.7718" y1="16.2703" x2="7.22896" y2="8.72751" gradientUnits="userSpaceOnUse">
<stop stop-color="#00A2F3" stop-opacity="0"/>
<stop offset="1" stop-color="#0075CD"/>
</linearGradient>
<linearGradient id="paint5_linear_2938_8290" x1="19.7053" y1="16.2704" x2="12.1625" y2="8.72759" gradientUnits="userSpaceOnUse">
<stop stop-color="#00A2F3" stop-opacity="0"/>
<stop offset="1" stop-color="#0075CD"/>
</linearGradient>
<clipPath id="clip0_2938_8290">
<rect width="28" height="28" fill="white"/>
</clipPath>
</defs>
</svg>
