<svg width="30" height="30" viewBox="0 0 30 30" fill="none" xmlns="http://www.w3.org/2000/svg">
<path d="M22.5 26.25H17.8125C17.6882 26.25 17.569 26.2006 17.481 26.1127C17.3931 26.0248 17.3438 25.9056 17.3438 25.7812C17.3438 25.6569 17.3931 25.5377 17.481 25.4498C17.569 25.3619 17.6882 25.3125 17.8125 25.3125H22.5C22.873 25.3125 23.2306 25.1643 23.4944 24.9006C23.7581 24.6369 23.9062 24.2792 23.9062 23.9062V21.0938C23.9062 20.9694 23.9556 20.8502 24.0435 20.7623C24.1315 20.6744 24.2507 20.625 24.375 20.625C24.4993 20.625 24.6185 20.6744 24.7065 20.7623C24.7944 20.8502 24.8438 20.9694 24.8438 21.0938V23.9062C24.843 24.5276 24.5958 25.1233 24.1565 25.5627C23.7171 26.0021 23.1214 26.2493 22.5 26.25Z" fill="#8FA5A5"/>
<path d="M16.4062 27.6562C17.4418 27.6562 18.2812 26.8168 18.2812 25.7812C18.2812 24.7457 17.4418 23.9062 16.4062 23.9062C15.3707 23.9062 14.5312 24.7457 14.5312 25.7812C14.5312 26.8168 15.3707 27.6562 16.4062 27.6562Z" fill="black"/>
<path d="M15 2.34375C12.3902 2.34673 9.88812 3.38479 8.04271 5.23021C6.19729 7.07562 5.15923 9.57769 5.15625 12.1875V16.4062C5.15625 16.5306 5.20564 16.6498 5.29354 16.7377C5.38145 16.8256 5.50068 16.875 5.625 16.875H8.4375C8.56182 16.875 8.68105 16.8256 8.76896 16.7377C8.85686 16.6498 8.90625 16.5306 8.90625 16.4062V12.1875C8.90625 10.5713 9.54827 9.02137 10.6911 7.87857C11.8339 6.73577 13.3838 6.09375 15 6.09375C16.6162 6.09375 18.1661 6.73577 19.3089 7.87857C20.4517 9.02137 21.0938 10.5713 21.0938 12.1875V16.4062C21.0938 16.5306 21.1431 16.6498 21.231 16.7377C21.319 16.8256 21.4382 16.875 21.5625 16.875H24.375C24.4993 16.875 24.6185 16.8256 24.7065 16.7377C24.7944 16.6498 24.8438 16.5306 24.8438 16.4062V12.1875C24.8408 9.57769 23.8027 7.07562 21.9573 5.23021C20.1119 3.38479 17.6098 2.34673 15 2.34375Z" fill="#1676F3"/>
<path d="M5.62483 15.9375H3.74983C3.34689 15.9714 2.97348 16.1625 2.71033 16.4695C2.44718 16.7765 2.31543 17.1747 2.34358 17.5781V20.8594C2.31543 21.2628 2.44718 21.661 2.71033 21.968C2.97348 22.275 3.34689 22.4661 3.74983 22.5H5.62483C5.75923 22.4889 5.88383 22.4252 5.97158 22.3228C6.05933 22.2204 6.10317 22.0875 6.09358 21.953V16.4845C6.10317 16.35 6.05933 16.2171 5.97158 16.1147C5.88383 16.0123 5.75923 15.9486 5.62483 15.9375Z" fill="#094979"/>
<path d="M26.2513 15.9375H24.3763C24.2419 15.9485 24.1172 16.0122 24.0294 16.1146C23.9417 16.217 23.8979 16.35 23.9076 16.4845V21.953C23.8979 22.0875 23.9417 22.2205 24.0294 22.3229C24.1172 22.4253 24.2419 22.489 24.3763 22.5H26.2513C26.6543 22.4661 27.0277 22.275 27.2908 21.968C27.554 21.661 27.6857 21.2628 27.6576 20.8594V17.5781C27.6857 17.1747 27.554 16.7765 27.2908 16.4695C27.0277 16.1625 26.6543 15.9714 26.2513 15.9375Z" fill="#094979"/>
<path d="M9.84375 15.4688H5.15625V21.5625C5.15625 22.1841 5.40318 22.7802 5.84272 23.2198C6.28226 23.6593 6.8784 23.9062 7.5 23.9062H9.84375C10.4654 23.9062 11.0615 23.6593 11.501 23.2198C11.9406 22.7802 12.1875 22.1841 12.1875 21.5625V17.8125C12.1875 17.1909 11.9406 16.5948 11.501 16.1552C11.0615 15.7157 10.4654 15.4688 9.84375 15.4688Z" fill="#1676F3"/>
<path d="M24.8438 15.4688H20.1562C19.5346 15.4688 18.9385 15.7157 18.499 16.1552C18.0594 16.5948 17.8125 17.1909 17.8125 17.8125V21.5625C17.8125 22.1841 18.0594 22.7802 18.499 23.2198C18.9385 23.6593 19.5346 23.9062 20.1562 23.9062H22.5C23.1216 23.9062 23.7177 23.6593 24.1573 23.2198C24.5968 22.7802 24.8438 22.1841 24.8438 21.5625V15.4688Z" fill="#1676F3"/>
</svg>
