<svg xmlns="http://www.w3.org/2000/svg" width="69.076" height="66.843" viewBox="0 0 69.076 66.843">
    <g id="Group_5920" data-name="Group 5920" transform="translate(-1248.492 -844.952)">
        <g id="money" transform="translate(1248.892 845.395)">
            <g id="Group_5905" data-name="Group 5905" transform="translate(0 21.678)">
                <g id="Group_5904" data-name="Group 5904" transform="translate(0 0)">
                    <path id="Path_3384" data-name="Path 3384" d="M58.013,160.017H.978a.976.976,0,0,0-.978.975V188.37a.976.976,0,0,0,.975.978H39.76a.978.978,0,0,0,0-1.955H1.955V161.972H57.033v2.444a.976.976,0,0,0,.975.978h0a.976.976,0,0,0,.978-.975v-3.424A.977.977,0,0,0,58.013,160.017Z" transform="translate(0 -160.017)" fill="#001A3B" stroke="#001A3B" stroke-width="0.8"/>
                </g>
            </g>
            <g id="Group_5907" data-name="Group 5907" transform="translate(2.281 6.849)">
                <g id="Group_5906" data-name="Group 5906">
                    <path id="Path_3385" data-name="Path 3385" d="M65.1,66.309,19.469,56.043a.977.977,0,0,0-1.169.741L16.019,67.05a.978.978,0,0,0,1.909.424L20,58.166l44.671,10.05a.92.92,0,0,0,.216.024.978.978,0,0,0,.213-1.931Z" transform="translate(-15.995 -56.019)" fill="#001A3B" stroke="#001A3B" stroke-width="0.8"/>
                </g>
            </g>
            <g id="Group_5909" data-name="Group 5909" transform="translate(14.811 0)">
                <g id="Group_5908" data-name="Group 5908" transform="translate(0 0)">
                    <path id="Path_3386" data-name="Path 3386" d="M134.9,19.464,107.529,8.058a.981.981,0,0,0-1.255.467l-2.281,4.563a.981.981,0,1,0,1.726.933q.015-.028.029-.057v0l1.872-3.746L134.15,21.273a.98.98,0,1,0,.755-1.809Z" transform="translate(-103.875 -7.982)" fill="#001A3B" stroke="#fff" stroke-width="0.8"/>
                </g>
            </g>
            <g id="Group_5911" data-name="Group 5911" transform="translate(36.501 26.24)">
                <g id="Group_5910" data-name="Group 5910" transform="translate(0 0)">
                    <path id="Path_3387" data-name="Path 3387" d="M266.031,192.017h-9.053a.978.978,0,1,0,0,1.955h9.053a.978.978,0,0,0,0-1.955Z" transform="translate(-256 -192.017)" fill="#001A3B" stroke="#001A3B" stroke-width="0.8"/>
                </g>
            </g>
            <g id="Group_5913" data-name="Group 5913" transform="translate(18.316 26.305)">
                <g id="Group_5912" data-name="Group 5912">
                    <path id="Path_3388" data-name="Path 3388" d="M138.494,192.473a10.038,10.038,0,1,0,10.038,10.038A10.038,10.038,0,0,0,138.494,192.473Zm0,18.251a8.213,8.213,0,1,1,8.213-8.213A8.213,8.213,0,0,1,138.494,210.724Z" transform="translate(-128.456 -192.473)" fill="#001A3B" stroke="#001A3B" stroke-width="0.8"/>
                </g>
            </g>
            <g id="Group_5915" data-name="Group 5915" transform="translate(43.182 29.499)">
                <g id="Group_5914" data-name="Group 5914">
                    <path id="Path_3389" data-name="Path 3389" d="M315.4,214.873c-6.046,0-12.547,1.428-12.547,4.563v27.376c0,3.135,6.5,4.563,12.547,4.563s12.547-1.428,12.547-4.563V219.436C327.951,216.3,321.449,214.873,315.4,214.873Zm10.266,31.921c-.172.633-3.593,2.3-10.266,2.3s-10.094-1.665-10.266-2.281v-1.793c2.427,1.223,6.437,1.793,10.266,1.793s7.84-.576,10.266-1.794Zm0-4.563c-.172.633-3.593,2.3-10.266,2.3s-10.094-1.665-10.266-2.281v-1.793c2.427,1.223,6.437,1.793,10.266,1.793s7.84-.576,10.266-1.794Zm0-4.563c-.172.633-3.593,2.3-10.266,2.3s-10.094-1.665-10.266-2.281v-1.793c2.427,1.223,6.437,1.793,10.266,1.793s7.84-.576,10.266-1.794Zm0-4.563c-.172.633-3.593,2.3-10.266,2.3s-10.094-1.665-10.266-2.281V231.33c2.427,1.223,6.437,1.793,10.266,1.793s7.84-.576,10.266-1.794Zm0-4.563c-.172.633-3.593,2.3-10.266,2.3s-10.094-1.665-10.266-2.281v-1.793c2.427,1.217,6.437,1.793,10.266,1.793s7.84-.576,10.266-1.794Zm0-4.563c-.172.633-3.593,2.3-10.266,2.3S305.31,224.614,305.137,224v-1.793c2.427,1.217,6.437,1.793,10.266,1.793s7.84-.576,10.266-1.794ZM315.4,221.717c-6.663,0-10.082-1.661-10.266-2.261v-.007c.184-.635,3.6-2.295,10.266-2.295,6.616,0,10.038,1.636,10.266,2.281C325.441,220.081,322.019,221.717,315.4,221.717Z" transform="translate(-302.856 -214.873)" fill="#001A3B" stroke="#001A3B" stroke-width="0.8"/>
                </g>
            </g>
            <g id="Group_5917" data-name="Group 5917" transform="translate(4.561 26.24)">
                <g id="Group_5916" data-name="Group 5916" transform="translate(0 0)">
                    <path id="Path_3390" data-name="Path 3390" d="M46.659,210.266H38.036L33.948,205.8v-7.414l4.515-4.409h8.2a.978.978,0,0,0,0-1.955H38.066a.979.979,0,0,0-.684.277l-5.1,4.97a1.225,1.225,0,0,0-.294.8v8.112a.978.978,0,0,0,.256.659l4.635,5.069a.977.977,0,0,0,.722.318h9.055a.978.978,0,1,0,0-1.955Z" transform="translate(-31.992 -192.017)" fill="#001A3B" stroke="#001A3B" stroke-width="0.8"/>
                </g>
            </g>
            <g id="Group_5919" data-name="Group 5919" transform="translate(24.931 31.21)">
                <g id="Group_5918" data-name="Group 5918">
                    <path id="Path_3391" data-name="Path 3391" d="M178.848,230.865h-1.141c-.355,0-.57-.2-.57-.285s.216-.285.57-.285h2.852a1.141,1.141,0,0,0,0-2.281h-1.141a1.141,1.141,0,1,0-2.281,0v.051a2.655,2.655,0,0,0-2.281,2.509,2.724,2.724,0,0,0,2.852,2.572h1.141c.355,0,.57.2.57.285s-.216.285-.57.285H176A1.141,1.141,0,1,0,176,236h1.141a1.141,1.141,0,1,0,2.281,0v-.051a2.655,2.655,0,0,0,2.281-2.509A2.724,2.724,0,0,0,178.848,230.865Z" transform="translate(-174.856 -226.873)" fill="#001A3B" stroke="#001A3B" stroke-width="0.8"/>
                </g>
            </g>
        </g>
    </g>
</svg>
