<svg width="42" height="40" viewBox="0 0 42 40" fill="none" xmlns="http://www.w3.org/2000/svg">
<path d="M39.2156 21.2068V36.8263H9.25175V21.2068H39.2156ZM41.7657 18.6567H6.70166V39.3764H41.7662V18.6567H41.7657Z" fill="#1676F3"/>
<path d="M32.2034 18.6567L35.7928 22.2462C35.7526 22.3743 35.7258 22.5063 35.713 22.6399C35.713 22.9115 35.7665 23.1804 35.8705 23.4313C35.9745 23.6822 36.1269 23.9101 36.319 24.1021C36.5111 24.294 36.7391 24.4462 36.9901 24.55C37.2411 24.6538 37.51 24.7071 37.7816 24.7069C37.9151 24.6939 38.047 24.6677 38.1753 24.6287L41.7665 28.2182V18.6567H32.2034Z" fill="#1676F3"/>
<path d="M34.5933 31.085C35.7358 31.085 36.6619 30.1589 36.6619 29.0164C36.6619 27.8739 35.7358 26.9478 34.5933 26.9478C33.4508 26.9478 32.5247 27.8739 32.5247 29.0164C32.5247 30.1589 33.4508 31.085 34.5933 31.085Z" fill="#1676F3"/>
<path d="M24.2332 34.4584C27.6889 34.4584 30.4903 32.0221 30.4903 29.0168C30.4903 26.0115 27.6889 23.5752 24.2332 23.5752C20.7775 23.5752 17.9761 26.0115 17.9761 29.0168C17.9761 32.0221 20.7775 34.4584 24.2332 34.4584Z" fill="#1676F3"/>
<path d="M13.8738 31.0836C15.0154 31.0836 15.9408 30.1582 15.9408 29.0167C15.9408 27.8751 15.0154 26.9497 13.8738 26.9497C12.7323 26.9497 11.8069 27.8751 11.8069 29.0167C11.8069 30.1582 12.7323 31.0836 13.8738 31.0836Z" fill="#1676F3"/>
<path d="M6.70166 28.2199L10.2911 24.6304C10.4192 24.6706 10.5512 24.6974 10.6848 24.7102C10.9564 24.7102 11.2253 24.6567 11.4762 24.5527C11.7271 24.4488 11.955 24.2964 12.147 24.1043C12.339 23.9121 12.4912 23.6841 12.5949 23.4331C12.6987 23.1821 12.752 22.9132 12.7518 22.6416C12.739 22.5079 12.7123 22.376 12.6719 22.2479L16.2631 18.6567H6.70166V28.2199Z" fill="#1676F3"/>
<path d="M12.7552 35.3917C12.7552 35.1201 12.7017 34.8512 12.5977 34.6003C12.4937 34.3495 12.3413 34.1215 12.1492 33.9296C11.9571 33.7376 11.729 33.5854 11.478 33.4816C11.2271 33.3778 10.9581 33.3245 10.6865 33.3248C10.553 33.3377 10.4211 33.3639 10.2928 33.4029L6.70166 29.8135V39.3749H16.2631L12.6736 35.7854C12.7143 35.6574 12.7416 35.5254 12.7552 35.3917Z" fill="#1676F3"/>
<path d="M37.7816 33.3233C37.51 33.3233 37.2411 33.3769 36.9902 33.4808C36.7394 33.5848 36.5114 33.7372 36.3195 33.9293C36.1275 34.1215 35.9753 34.3495 35.8715 34.6005C35.7677 34.8515 35.7144 35.1204 35.7147 35.392C35.7274 35.5257 35.7542 35.6576 35.7945 35.7857L32.2034 39.3769H41.7648V29.8154L38.177 33.4032C38.0484 33.3629 37.9158 33.3361 37.7816 33.3233Z" fill="#1676F3"/>
<path d="M30.1339 14.9493C31.2754 14.9493 32.2008 14.0239 32.2008 12.8824C32.2008 11.7408 31.2754 10.8154 30.1339 10.8154C28.9923 10.8154 28.0669 11.7408 28.0669 12.8824C28.0669 14.0239 28.9923 14.9493 30.1339 14.9493Z" fill="#1676F3"/>
<path d="M4.31101 18.6566C4.31116 18.0226 4.5631 17.4145 5.01146 16.9662C5.45981 16.5178 6.06786 16.2659 6.70193 16.2657H8.00847L8.06471 16.0616L26.5194 5.95681L27.93 6.36795C27.957 6.50001 27.9981 6.62879 28.0526 6.7521C28.1829 6.99054 28.359 7.20095 28.5707 7.37128C28.7825 7.5416 29.0257 7.66851 29.2866 7.74472C29.5474 7.82094 29.8207 7.84498 30.0908 7.81546C30.361 7.78594 30.6226 7.70344 30.8608 7.57269C30.9714 7.49803 31.0734 7.41145 31.1651 7.31453L32.5791 7.72905L35.794 13.5975L35.3812 15.0098C35.2498 15.0361 35.1216 15.0763 34.9987 15.1296C34.5545 15.3782 34.2187 15.7832 34.0566 16.2657H40.1624L36.0409 8.73806L31.4475 0.351562L23.0576 4.94499L9.07935 12.6003L0.691162 17.1937L4.31101 23.8029V18.6566Z" fill="#1676F3"/>
<path d="M18.4323 13.0877C17.1262 13.7936 16.0897 14.9109 15.4834 16.266H27.0134C26.93 15.7736 26.7692 15.2975 26.537 14.8554C25.0893 12.2187 21.4632 11.4285 18.4323 13.0877Z" fill="#1676F3"/>
</svg>
