<svg width="26" height="26" viewBox="0 0 26 26" fill="none" xmlns="http://www.w3.org/2000/svg">
<g clip-path="url(#clip0_2938_8268)">
<path d="M13 26C20.1797 26 26 20.1797 26 13C26 5.8203 20.1797 0 13 0C5.8203 0 0 5.8203 0 13C0 20.1797 5.8203 26 13 26Z" fill="#FFB844"/>
<path d="M26.0007 12.9998C26.0007 12.6934 25.9893 12.3896 25.9684 12.0884L19.9041 6.02411C18.6389 4.67465 16.8428 3.82812 14.8585 3.82812H11.1429C7.33573 3.82812 4.2207 6.94315 4.2207 10.7504V13.4528C4.2207 15.2133 4.88711 16.8254 5.97961 18.0503L5.12735 20.7289L10.0656 25.6672C11.0088 25.8848 11.9913 25.9998 13.0007 25.9998C20.1804 25.9998 26.0007 20.1795 26.0007 12.9998Z" fill="#FF7600"/>
<path d="M14.8585 3.82812H11.1429C7.33573 3.82812 4.2207 6.94315 4.2207 10.7504V13.4528C4.2207 15.2133 4.88711 16.8254 5.97966 18.0503L5.1274 20.7289L8.15559 19.6929C9.06122 20.1298 10.0748 20.375 11.1429 20.375H14.8585C18.6657 20.375 21.7807 17.26 21.7807 13.4527V10.7503C21.7807 6.94315 18.6657 3.82812 14.8585 3.82812Z" fill="white"/>
<path d="M21.7801 10.7506V13.4532C21.7801 17.2603 18.6652 20.3752 14.8576 20.3752H13V3.82861H14.8576C18.6652 3.82861 21.7801 6.94353 21.7801 10.7506Z" fill="#FFF5CA"/>
<path d="M11.7753 13.972C11.7753 13.4371 11.8626 12.9565 12.0373 12.5306C12.2119 12.1048 12.5722 11.7337 13.1184 11.4168C13.2821 11.3186 13.4841 11.2067 13.7243 11.0811C13.9644 10.9556 14.1994 10.8054 14.4287 10.6306C14.658 10.4561 14.8517 10.2513 15.0101 10.0164C15.1683 9.78172 15.2476 9.51151 15.2476 9.20566C15.2476 8.97633 15.2039 8.77442 15.1166 8.59963C15.0291 8.4251 14.9145 8.27768 14.7726 8.15743C14.6306 8.03738 14.464 7.94735 14.2731 7.88717C14.0819 7.82725 13.8882 7.79709 13.6916 7.79709C13.4513 7.79709 13.233 7.83807 13.0365 7.91993C12.8399 8.00178 12.6624 8.10573 12.5042 8.23111C12.3458 8.35675 12.2037 8.49883 12.0784 8.65697C11.9527 8.8154 11.8462 8.96561 11.759 9.10739L10.334 8.12463C10.4758 7.78627 10.6641 7.48585 10.899 7.22377C11.1337 6.96173 11.4012 6.74058 11.7016 6.56041C12.0018 6.38024 12.3266 6.24384 12.6762 6.15096C13.0255 6.05829 13.3858 6.01172 13.7571 6.01172C14.172 6.01172 14.5815 6.07184 14.9855 6.19189C15.3894 6.31214 15.7525 6.50308 16.0748 6.76516C16.3967 7.02724 16.6588 7.36296 16.8609 7.77246C17.0629 8.18191 17.164 8.67073 17.164 9.23836C17.164 9.58799 17.123 9.89633 17.0411 10.1637C16.9592 10.4315 16.8418 10.6743 16.689 10.8926C16.5359 11.1112 16.3558 11.3077 16.1485 11.4823C15.9409 11.6571 15.7063 11.8262 15.4442 11.99C15.2256 12.1211 15.0073 12.2467 14.789 12.3667C14.5704 12.487 14.3713 12.6206 14.1912 12.768C14.011 12.9154 13.8636 13.0848 13.749 13.2757C13.6343 13.4669 13.577 13.699 13.577 13.9718H11.7753V13.972ZM11.808 17.7882V15.5279H13.6261V17.7882H11.808Z" fill="#9330B2"/>
<path d="M13 15.5281V17.7884H13.6261V15.5281H13ZM16.8609 7.77281C16.6588 7.36301 16.3968 7.02734 16.0748 6.76531C15.7529 6.50328 15.3898 6.31234 14.9855 6.19199C14.5818 6.07215 14.172 6.01172 13.7571 6.01172C13.4997 6.01172 13.2468 6.03406 13 6.07926V7.93582C13.0122 7.93023 13.0244 7.92516 13.0366 7.92008C13.2331 7.83832 13.4514 7.79719 13.6916 7.79719C13.8882 7.79719 14.0821 7.82715 14.2731 7.88707C14.464 7.9475 14.6306 8.03738 14.7728 8.15773C14.9145 8.27758 15.0292 8.42535 15.1166 8.59953C15.2039 8.77473 15.2476 8.97633 15.2476 9.20586C15.2476 9.51156 15.1684 9.78172 15.0104 10.0163C14.852 10.2514 14.658 10.4561 14.429 10.6308C14.1995 10.8055 13.9643 10.9558 13.7246 11.0812C13.4845 11.2066 13.2823 11.3189 13.1183 11.4169C13.0777 11.4402 13.0386 11.4641 13 11.4885V13.9722H13.5769C13.5769 13.699 13.6343 13.4669 13.749 13.276C13.8638 13.085 14.0111 12.9154 14.1913 12.7682C14.3716 12.6209 14.5707 12.4873 14.789 12.367C15.0074 12.2466 15.2257 12.1212 15.4441 11.9902C15.7061 11.8262 15.9413 11.6571 16.1484 11.4824C16.3561 11.3077 16.5359 11.1112 16.6893 10.8928C16.8421 10.6745 16.9594 10.4317 17.0412 10.1641C17.1229 9.89648 17.1641 9.58824 17.1641 9.23836C17.1641 8.67062 17.063 8.18211 16.8609 7.77281Z" fill="#6B1472"/>
</g>
<defs>
<clipPath id="clip0_2938_8268">
<rect width="26" height="26" fill="white"/>
</clipPath>
</defs>
</svg>
