<svg xmlns="http://www.w3.org/2000/svg" width="56.674" height="66.11" viewBox="0 0 56.674 66.11">
    <g id="surface1" transform="translate(1.466 1.501)">
        <path id="Path_3392" data-name="Path 3392" d="M132.466,158.457a12.025,12.025,0,1,0,12.024,12.024A12.038,12.038,0,0,0,132.466,158.457Zm7.139,9.76-8.614,8.614a1.851,1.851,0,0,1-2.619,0l-3.292-3.292a1.851,1.851,0,1,1,2.618-2.618l1.983,1.983,7.306-7.305a1.851,1.851,0,0,1,2.618,2.618Zm0,0" transform="translate(-105.595 -138.926)" fill="#001A3B"/>
        <path id="Path_3393" data-name="Path 3393" d="M53.679,17.122l0-.049c-.027-.606-.046-1.248-.057-1.961a6.689,6.689,0,0,0-6.3-6.553c-7.256-.4-12.869-2.771-17.666-7.446l-.041-.039a4.039,4.039,0,0,0-5.489,0l-.041.039C19.29,5.789,13.677,8.155,6.421,8.56a6.688,6.688,0,0,0-6.3,6.553c-.011.709-.029,1.35-.057,1.961l0,.114c-.141,7.4-.316,16.608,2.764,24.966a31.78,31.78,0,0,0,7.624,11.876,39.885,39.885,0,0,0,14.921,8.825,4.614,4.614,0,0,0,.611.167,4.517,4.517,0,0,0,1.776,0,4.618,4.618,0,0,0,.614-.168,39.91,39.91,0,0,0,14.9-8.83A31.827,31.827,0,0,0,50.9,42.145C53.995,33.761,53.82,24.536,53.679,17.122ZM26.871,47.283A15.728,15.728,0,1,1,42.6,31.555,15.746,15.746,0,0,1,26.871,47.283Zm0,0" transform="translate(0 0)" fill="none" stroke="#001A3B" stroke-width="3"/>
    </g>
</svg>
