<svg width="51" height="39" viewBox="0 0 51 39" fill="none" xmlns="http://www.w3.org/2000/svg">
<path d="M33.2818 17.2759C34.2824 18.3133 35.4731 19.1487 36.7891 19.7365L34.5601 19.594L34.497 22.3492L38.7665 22.4805L38.9621 20.4545C39.943 20.672 40.9486 20.7568 41.9521 20.7069L41.2151 28.3506C41.195 28.5623 41.0968 28.759 40.9395 28.9021C40.7822 29.0452 40.5773 29.1246 40.3646 29.1248H14.5104L12.0731 33.3236C12.0046 33.4426 11.9861 33.5838 12.0216 33.7164C12.0571 33.8489 12.1437 33.962 12.2624 34.0309C12.3418 34.0763 12.4315 34.1004 12.5229 34.1009H39.5034C39.6161 34.1007 39.7274 34.1253 39.8294 34.1729C39.9315 34.2206 40.0218 34.2901 40.094 34.3766L41.5501 36.1218C41.6765 36.2653 41.7728 36.4326 41.8334 36.6139C41.894 36.7952 41.9176 36.9869 41.9029 37.1775C41.8881 37.3681 41.8353 37.5538 41.7476 37.7237C41.6598 37.8935 41.5389 38.0441 41.392 38.1664C41.2451 38.2887 41.0751 38.3803 40.8922 38.4359C40.7093 38.4914 40.5171 38.5097 40.3269 38.4896C40.1368 38.4696 39.9526 38.4117 39.7853 38.3192C39.6179 38.2268 39.4708 38.1018 39.3526 37.9515L38.87 37.3799C38.798 37.293 38.7078 37.2231 38.6057 37.1751C38.5036 37.1271 38.3922 37.1022 38.2794 37.1023H12.4113C11.8122 37.0829 11.2281 36.9109 10.7141 36.6026C10.2001 36.2943 9.77339 35.8599 9.47427 35.3405C9.17516 34.8212 9.01359 34.234 9.00487 33.6347C8.99615 33.0355 9.14057 32.4439 9.42445 31.916L11.0832 29.0516L6.82501 6.90595C6.69546 6.23309 6.38122 5.60955 5.91746 5.10512C5.4537 4.60068 4.85871 4.23526 4.19908 4.04973L1.45138 3.28063C1.07036 3.16483 0.75095 2.90242 0.563409 2.55112C0.375868 2.19982 0.335561 1.78841 0.451356 1.40739C0.56715 1.02638 0.829561 0.706964 1.18086 0.519423C1.53216 0.331882 1.94357 0.291575 2.32459 0.40737L7.20357 1.77964C7.73979 1.93042 8.22345 2.22746 8.60042 2.63753C8.97739 3.04759 9.23278 3.55449 9.33801 4.10147L9.62003 5.56712L30.2231 8.0044C30.092 9.00806 30.0968 10.0248 30.2376 11.0272L26.4009 10.5735L26.5384 13.2727L30.9581 13.7061C31.1555 14.1903 31.3863 14.6603 31.649 15.1125L26.6066 14.6203L26.7668 17.7636L33.2585 18.1788L33.2818 17.2759ZM18.3218 12.4701L25.199 13.1433L25.0589 10.4164L17.959 9.57605L18.3218 12.4701ZM10.8068 11.7351L16.9609 12.3376L16.595 9.41516L10.2156 8.65804L10.8068 11.7351ZM11.7822 16.8116L17.5685 17.18L17.1313 13.6954L11.0699 13.1029L11.7822 16.8116ZM18.9237 17.2665L25.4311 17.6816L25.2677 14.4916L18.4928 13.8273L18.9237 17.2665ZM26.9927 22.1246L33.1632 22.3139L33.2263 19.5145L26.8381 19.105L26.9927 22.1246ZM19.5067 21.8943L25.6589 22.0836L25.5005 19.0198L19.0935 18.6116L19.5067 21.8943ZM12.7242 21.6874L18.1571 21.8533L17.7395 18.5252L12.0428 18.1617L12.7242 21.6874ZM38.4157 26.1247L38.6384 23.8149L34.4648 23.6887L34.4061 26.1272L38.4157 26.1247ZM33.073 26.1247L33.1329 23.6458L27.0621 23.4603L27.1977 26.1253H33.0717L33.073 26.1247ZM25.8633 26.1247L25.7239 23.4193L19.6726 23.2338L20.0354 26.1253H25.8633V26.1247ZM18.6915 26.1247L18.3237 23.1928L12.9804 23.03L13.5753 26.1216L18.6915 26.1247ZM50.7113 9.46059C50.7111 7.61724 50.1644 5.81534 49.1402 4.28272C48.116 2.75011 46.6603 1.55563 44.9572 0.850326C43.2541 0.145025 41.3802 -0.0394168 39.5723 0.320324C37.7644 0.680064 36.1038 1.56783 34.8004 2.87136C33.4971 4.17489 32.6095 5.83563 32.25 7.64357C31.8905 9.45152 32.0752 11.3255 32.7807 13.0284C33.4863 14.7314 34.681 16.1869 36.2137 17.2109C37.7465 18.2349 39.5484 18.7814 41.3918 18.7813C42.6157 18.7813 43.8277 18.5402 44.9585 18.0718C46.0893 17.6034 47.1167 16.9168 47.9821 16.0513C48.8475 15.1857 49.5339 14.1582 50.0022 13.0274C50.4705 11.8965 50.7114 10.6845 50.7113 9.46059ZM49.9358 9.46059C49.9361 11.1505 49.4352 12.8026 48.4965 14.2078C47.5578 15.6131 46.2234 16.7084 44.6622 17.3552C43.1009 18.0021 41.3829 18.1714 39.7255 17.8418C38.068 17.5123 36.5455 16.6986 35.3504 15.5036C34.1554 14.3087 33.3416 12.7862 33.0119 11.1288C32.6822 9.47133 32.8514 7.75332 33.4982 6.19203C34.1449 4.63075 35.2401 3.29632 36.6453 2.35751C38.0505 1.41869 39.7025 0.917667 41.3924 0.917792C43.6581 0.918127 45.8308 1.81826 47.4329 3.42025C49.035 5.02224 49.9353 7.19494 49.9358 9.46059Z" fill="#1676F3"/>
<path d="M41.5413 15.6484H38.9097V7.05196H37.2888L41.5413 3.25439L45.7925 7.05196H44.1748V15.6484H41.5413Z" fill="#1676F3"/>
</svg>
