<svg width="28" height="23" viewBox="0 0 28 23" fill="none" xmlns="http://www.w3.org/2000/svg">
<path d="M27.456 20.68L15.369 0.975669C14.5646 -0.337474 13.2486 -0.318992 12.4442 0.994119L0.357174 20.6713C-0.44723 21.9854 0.153588 23 1.69245 23H26.1203C27.6601 23 28.2608 21.9918 27.4564 20.6797L27.456 20.68ZM13.8962 5.33734C14.6703 5.33734 15.2692 6.19243 15.2296 7.23751L14.9844 13.5348C14.9448 14.5789 14.4537 15.434 13.8934 15.434C13.3331 15.434 12.8411 14.5789 12.8015 13.5348L12.5592 7.23751C12.5196 6.19247 13.1204 5.33734 13.8963 5.33734H13.8962ZM13.8962 20.1777C12.9195 20.1777 12.2496 19.4636 12.2698 18.4878C12.2698 17.4907 12.9415 16.7978 13.8962 16.7978C14.8914 16.7978 15.5208 17.4907 15.5419 18.4878C15.5419 19.4637 14.8914 20.1777 13.8962 20.1777Z" fill="white"/>
</svg>
