<svg width="26" height="25" viewBox="0 0 26 25" fill="none" xmlns="http://www.w3.org/2000/svg">
<path d="M0 23.5363C0 23.2405 0.117986 22.957 0.327907 22.7485C0.537828 22.5401 0.822223 22.4241 1.11802 22.4263H3.64071V19.3511H2.91739C2.71261 19.3511 2.51499 19.2755 2.36234 19.139C2.20985 19.0023 2.11315 18.814 2.09077 18.6105C2.06856 18.407 2.12214 18.2022 2.24123 18.0358L5.00612 14.1793C5.16209 13.9611 5.41385 13.8318 5.68213 13.8318C5.9504 13.8318 6.20215 13.9611 6.35815 14.1793L9.12031 18.0331C9.23958 18.1997 9.29316 18.4043 9.27078 18.6079C9.24839 18.8114 9.15168 18.9997 8.9992 19.1362C8.84672 19.2729 8.6491 19.3485 8.44434 19.3483H7.72873V22.4263H10.9092V12.43H10.191C9.98627 12.43 9.78864 12.3544 9.63618 12.2179C9.48351 12.0812 9.38681 11.8929 9.36442 11.6894C9.34222 11.486 9.3958 11.2812 9.51507 11.1148L12.2798 7.26358C12.4357 7.04541 12.6875 6.91604 12.9558 6.91604C13.2241 6.91604 13.4758 7.04541 13.6318 7.26358L16.394 11.1173C16.5132 11.284 16.5668 11.4886 16.5444 11.692C16.522 11.8957 16.4253 12.0838 16.2729 12.2205C16.1204 12.3572 15.9227 12.4326 15.718 12.4326H15.0024V22.4289H18.1829V5.51934H17.4673C17.2625 5.51934 17.0649 5.44392 16.9124 5.30722C16.7599 5.17052 16.6632 4.98244 16.6408 4.77876C16.6185 4.57526 16.672 4.37048 16.7913 4.20407L19.556 0.347721C19.7122 0.129547 19.9639 0 20.232 0C20.5003 0 20.752 0.129547 20.9082 0.347721L23.6704 4.20148C23.7895 4.36792 23.8431 4.57269 23.8209 4.77617C23.7985 4.97967 23.7018 5.16793 23.5493 5.30464C23.3966 5.44116 23.199 5.51676 22.9942 5.51676H22.2788V22.4263H24.7936C25.0971 22.4114 25.3933 22.5217 25.6133 22.7311C25.8333 22.9406 25.9577 23.2312 25.9577 23.5349C25.9577 23.8388 25.8333 24.1293 25.6133 24.3388C25.3933 24.5484 25.0971 24.6585 24.7936 24.6438H1.11832C0.823073 24.6458 0.539026 24.5302 0.329096 24.3223C0.119363 24.1146 0.00100554 23.8316 0.000272734 23.5362L0 23.5363Z" fill="white"/>
</svg>
