<svg width="27" height="23" viewBox="0 0 27 23" fill="none" xmlns="http://www.w3.org/2000/svg">
<path d="M0 0V7.36289C0 7.76924 0.922082 8.33666 2.42344 8.33666C3.9248 8.33666 4.84641 7.76922 4.84641 7.36289V3.8435C4.84641 3.65274 5.00194 3.49743 5.19248 3.49743C5.38324 3.49743 5.53855 3.65297 5.53855 3.8435V7.36289C5.53855 7.7697 6.46039 8.33666 7.96151 8.33666C9.4624 8.33666 10.3842 7.76922 10.3842 7.36289L10.3845 3.8435C10.3845 3.65274 10.54 3.49743 10.7305 3.49743C10.9213 3.49743 11.0766 3.65297 11.0766 3.8435V7.36289C11.0766 7.7697 11.9985 8.33666 13.4996 8.33666C15.0005 8.33666 15.9223 7.76922 15.9223 7.36289L15.9225 3.8435C15.9225 3.65274 16.0776 3.49743 16.2686 3.49743C16.4596 3.49743 16.6147 3.65297 16.6147 3.8435V7.36289C16.6147 7.7697 17.5365 8.33666 19.0376 8.33666C20.539 8.33666 21.4606 7.76922 21.4606 7.36289L21.4608 3.8435C21.4608 3.65274 21.6159 3.49743 21.8069 3.49743C21.9979 3.49743 22.153 3.65297 22.153 3.8435V7.36289C22.153 7.7697 23.0748 8.33666 24.5757 8.33666C26.0773 8.33666 26.9994 7.76922 26.9994 7.36289L26.9996 0H0Z" fill="white"/>
<path d="M21.8074 7.36229C21.8074 8.09057 20.565 8.68213 19.0381 8.68213C17.5113 8.68213 16.2689 8.09012 16.2689 7.36229C16.2689 8.09057 15.0269 8.68213 13.5001 8.68213C11.9732 8.68213 10.7308 8.09012 10.7308 7.36229C10.7308 8.09057 9.4888 8.68213 7.96199 8.68213C6.43517 8.68213 5.19271 8.09012 5.19271 7.36229V7.36206C5.19271 8.09034 3.95026 8.6819 2.42344 8.6819C1.38149 8.6819 0.472642 8.40606 0 7.99925V22.4004H17.8269L17.8271 16.219H22.6733V22.3999L27 22.4001V7.99948C26.5276 8.40629 25.6185 8.68213 24.5763 8.68213C23.0495 8.68213 21.8075 8.09012 21.8075 7.36182L21.8074 7.36229ZM13.1539 17.9005C13.1539 17.996 13.0762 18.0736 12.9807 18.0736H2.53868C2.44318 18.0736 2.36553 17.996 2.36553 17.9005V12.4197C2.36553 12.3244 2.44318 12.2465 2.53868 12.2465H12.9807C13.0762 12.2465 13.1539 12.3244 13.1539 12.4197V17.9005Z" fill="white"/>
</svg>
