<svg width="29" height="20" viewBox="0 0 29 20" fill="none" xmlns="http://www.w3.org/2000/svg">
<path d="M3.95449 19.7725H25.0455C26.0941 19.7725 27.1 19.3558 27.8417 18.6141C28.5834 17.8727 29 16.8668 29 15.818V3.95449C29 2.90565 28.5834 1.8998 27.8417 1.15833C27.1 0.416634 26.0941 0 25.0455 0H3.95449C2.90588 0 1.90002 0.416634 1.15833 1.15833C0.416634 1.8998 0 2.90565 0 3.95449V15.818C0 16.8668 0.416634 17.8727 1.15833 18.6141C1.90002 19.3558 2.90588 19.7725 3.95449 19.7725ZM21.091 6.59101C21.091 6.12009 21.3421 5.68492 21.7499 5.44946C22.1578 5.214 22.6604 5.214 23.0683 5.44946C23.4761 5.68492 23.7272 6.12009 23.7272 6.59101V13.182V13.1818C23.7272 13.6527 23.4761 14.0879 23.0683 14.3234C22.6605 14.5588 22.1578 14.5588 21.7499 14.3234C21.3421 14.0879 21.091 13.6527 21.091 13.1818V6.59101ZM15.8182 7.9091C15.8182 7.43818 16.0696 7.00301 16.4774 6.76755C16.8852 6.53209 17.3876 6.53209 17.7955 6.76755C18.2033 7.00301 18.4546 7.43818 18.4546 7.9091V13.1817C18.4546 13.6526 18.2033 14.0878 17.7955 14.3232C17.3876 14.5587 16.8852 14.5587 16.4774 14.3232C16.0696 14.0878 15.8182 13.6526 15.8182 13.1817V7.9091ZM10.5456 9.22719C10.5456 8.75627 10.797 8.3211 11.2048 8.08564C11.6126 7.85018 12.115 7.85018 12.5229 8.08564C12.9307 8.3211 13.182 8.75627 13.182 9.22719V13.1817C13.182 13.6526 12.9307 14.0878 12.5229 14.3232C12.1151 14.5587 11.6126 14.5587 11.2048 14.3232C10.797 14.0878 10.5456 13.6526 10.5456 13.1817V9.22719ZM5.27304 10.5455C5.27304 10.0746 5.52416 9.63942 5.93197 9.40396C6.33978 9.16849 6.84246 9.16849 7.25028 9.40396C7.65809 9.63942 7.90921 10.0746 7.90921 10.5455V13.1819V13.1817C7.90921 13.6526 7.65809 14.0878 7.25028 14.3232C6.84247 14.5587 6.33979 14.5587 5.93197 14.3232C5.52416 14.0878 5.27304 13.6526 5.27304 13.1817V10.5455Z" fill="white"/>
</svg>
