<svg width="14" height="28" viewBox="0 0 14 28" fill="none" xmlns="http://www.w3.org/2000/svg">
<path fill-rule="evenodd" clip-rule="evenodd" d="M5.75742 26.5888C5.12579 27.6942 3.94157 27.4573 4.17843 26.0363C4.73099 22.7994 5.75742 19.1679 6.07316 16.01C4.49417 15.9311 2.67852 16.01 1.09978 16.01C-0.00552812 16.01 -0.242393 15.4575 0.231288 14.589C2.91538 10.0102 5.75732 5.27341 8.28401 0.694151C8.83656 -0.411153 10.0207 -0.174337 9.78392 1.24671C9.23137 4.32561 8.28401 8.19412 7.96807 11.194C9.54706 11.3519 11.2838 11.194 12.9415 11.194C13.9677 11.194 14.2836 11.7465 13.7309 12.6939C11.1257 17.2727 8.28337 21.9304 5.75717 26.5887L5.75742 26.5888Z" fill="white"/>
</svg>
